<svg version="1.2" xmlns="http://www.w3.org/2000/svg" viewBox="0 0 1080 1080" width="40" height="40">
	<title>v (16)</title>
	<style>
		.s0 { fill: #942525 } 
		.s1 { fill: #ffffff } 
	</style>
	<g id="Background">
		<path id="Path 1" class="s0" d="m639 287.8c-2.1 2-24.4 33.2-49.5 69.2-25.1 36-46 65.6-46.3 65.7-0.4 0.1-8.8-14.4-18.7-32.3-9.9-17.9-18.3-33-18.7-33.7-0.6-0.9-1-0.9-2 0-0.6 0.7-2.2 1.3-3.5 1.3-1.6 0-2.2-0.5-2-1.8 0.1-0.9 1.2-1.8 2.5-2 1.2-0.1 2.2-0.7 2.2-1.2 0-0.6-6.6-12.8-14.6-27.3-8.1-14.4-15.4-27.3-16.4-28.7-0.9-1.4-3.3-3.3-5.4-4.3-2-0.9-5.5-1.7-7.9-1.7-3.7 0-9.9 3.3-50.1 26.3-34.6 19.8-46.3 26.9-47.7 29.2-1.1 1.6-1.9 4.5-1.9 6.2 0 1.8 0.6 4.8 1.3 6.5 0.8 1.8 24.3 43.8 52.2 93.3l50.8 90c-3.1 5.4-34.8 62.4-72.3 130-37.6 67.6-68.7 124.6-69.1 126.5-0.5 2.1-0.3 5.3 0.4 7.9 0.7 2.4 2.3 5.5 3.7 6.9 1.4 1.3 3.4 2.8 4.5 3.2 1.1 0.5 27.6 1.4 59 2 42.2 0.9 58 0.9 60.7 0.1 2.3-0.6 4.8-2.4 6.2-4.4 1.3-1.7 9-15.5 17-30.5 8-14.9 14.6-27.5 14.6-28 0-0.4-1-1.3-2.2-2-1.5-0.9-2-1.7-1.3-2.3 0.5-0.5 2.4-1 4-1 2.7-0.1 3.4-1 8.1-9.8 2.9-5.3 5-10.2 4.8-10.9-0.2-0.6 0.8-2.4 2.4-4 1.5-1.5 8.1-12.7 14.7-25 6.6-12.2 12.3-21.9 12.6-21.5 0.4 0.5 12.7 28 27.4 61.3 14.7 33.3 27.8 62.6 29.1 65.2 1.5 3.1 3.8 5.6 6.1 7l3.8 2.3c102.7 0 104.1-0.1 107.5-2.1 1.9-1.1 4.6-3.6 5.8-5.5 1.9-2.7 2.3-4.4 2-7.9-0.3-3-17.2-44.3-52.1-127.3l-51.7-122.7c13.4-22.1 23.6-38.4 31.3-50.5 7.7-12.1 20.3-31.5 28-43 7.7-11.5 18.7-27.8 24.5-36 5.8-8.3 18.3-25.4 27.8-38 9.4-12.6 17.7-24.2 18.3-25.8 0.6-1.5 1.1-4.1 1.1-5.7 0-1.6-0.6-4.2-1.4-5.8-0.8-1.5-2.5-3.7-3.8-4.9-1.2-1.2-19.6-14.3-40.8-29.2l-38.5-27.1c-12.2 0-12.8 0.2-16.5 3.7z"/>
		<path id="Path 2" class="s1" d="m619.9 399.3c-0.9 1.7-0.8 2.4 0.3 2.9 0.7 0.4 2.3 0.8 3.6 0.8 1.2 0 2.6-0.8 3.1-1.8 0.4-0.9 0.7-2.3 0.5-3-0.2-0.6-1.7-1.2-3.4-1.2-2.1 0-3.3 0.7-4.1 2.2zm-31.8 8.3c-0.9 1.2-0.7 1.6 1.2 1.9 1.2 0.3 4.3 0.7 7 1 3.8 0.5 4.7 0.3 4.7-0.9q0-1.5-5-2.5c-2.7-0.6-5.4-1-5.9-1-0.5 0-1.4 0.7-2 1.5zm-6.4 27.2c-0.4 1.9 0 3.4 1.1 4.5 1.6 1.6 1.9 1.5 4.7-0.6l3-2.3c-5.4-3.3-7.3-4.3-7.7-4.3-0.3 0-0.8 1.2-1.1 2.7zm-45.7 73.2c-1.3 0.8-1.3 1.1 0 2.6 0.8 0.9 2.3 1.6 3.3 1.5 0.9 0 1.8-0.9 1.9-1.9 0.2-1-0.5-2.2-1.5-2.5-0.9-0.3-1.8-0.6-1.9-0.6-0.2 0-1 0.4-1.8 0.9zm-4.4 24.8c0.4 1.6 0.8 3 0.9 3.3 0.1 0.3 1.8 0.8 3.6 1.2 2.2 0.5 3.8 0.3 4.7-0.5 0.7-0.6 1.3-2.1 1.3-3.2 0-1.4-1-2.2-3.3-2.8-1.8-0.4-4.3-0.7-5.6-0.7-1.9 0-2.2 0.4-1.6 2.7zm23.7 5.1c-0.7 0.4-0.9 1.3-0.5 2 0.4 0.7 1.5 1 2.5 0.7 0.9-0.3 1.7-1.2 1.7-2 0-0.8-0.6-1.5-1.2-1.5-0.7 0-1.8 0.4-2.5 0.8zm-5.1 9c-0.7 0.4-1 1.5-0.7 2.4 0.4 1.4 1.1 1.6 3.3 1.2 1.5-0.4 2.9-0.8 3.2-1 0.3-0.2-0.2-1.1-1-1.9-0.8-0.9-2-1.6-2.5-1.5-0.5 0-1.6 0.4-2.3 0.8zm14.4 14.7c-0.3 0.8-0.6 2-0.6 2.5 0 0.5 1 1.2 2.3 1.4 1.2 0.2 3-0.1 4-0.5 0.9-0.5 1.8-1.3 1.9-1.8 0.1-0.5-1.4-1.4-3.3-2-1.9-0.6-3.5-1.1-3.6-1.1-0.1 0-0.4 0.7-0.7 1.5zm-58.6 3.4c-1.3 0.8-1.3 1.1 0 2.6 0.8 0.9 2.4 1.5 3.5 1.3 1.3-0.2 2-1.1 2-2.6 0.1-1.6-0.5-2.2-2-2.2-1.1 0-2.7 0.4-3.5 0.9zm77 0.3c0 0.7 0.4 2 1 2.8 0.8 1.3 1.2 1.3 3.5 0 2.5-1.4 2.5-1.6 0.8-2.8-1-0.7-2.6-1.2-3.5-1.2-1 0-1.8 0.6-1.8 1.2zm-15.3 10.7c-2.7 0.6-2.7 0.6-1 3 1.2 1.5 2.4 2.1 3.6 1.7 0.9-0.3 1.7-0.1 1.7 0.4 0 0.5-0.5 1.1-1.1 1.2-0.7 0.2-1.2 1.8-1.3 3.5-0.1 2.7 0.3 3.3 1.9 3.3 1.1 0 2.7-0.4 3.5-0.9 1.1-0.6 1.2-1 0.3-1.5-0.7-0.3-1.3-1.1-1.3-1.6 0-0.5 0.6-1 1.3-1 0.6 0.1 1.8-0.6 2.5-1.5 1-1.2 0.9-1.7-0.1-2.8-0.7-0.6-1.6-2-2-3-0.4-1-1.7-1.6-2.9-1.6-1.3 0.1-3.5 0.4-5.1 0.8zm-1.7 16.1c0 1.1 0.7 2.2 1.5 2.5 0.8 0.3 2.5 0.5 3.8 0.5 1.2 0 2.9-0.4 3.7-0.9 1.3-0.8 1.3-1.1 0-2.6-0.9-0.9-3-1.6-5.2-1.5-3.1 0-3.8 0.4-3.8 2zm15.2 8.6c-0.4 1-0.1 1.9 0.8 2.5 0.8 0.5 2.6 0.7 4 0.4 1.4-0.3 3.5 0.1 4.8 1 2 1.4 2.3 1.3 2.8-0.3 0.3-0.9 0.4-2.2 0.2-2.7-0.3-0.5-2-1.3-3.9-1.8-1.9-0.4-4.4-0.7-5.7-0.7-1.2 0-2.6 0.7-3 1.6zm-6.1 5.9c0.8 0.9 2.2 1.6 3.2 1.5 0.9 0 1.6-0.6 1.4-1.3-0.2-0.6-1.6-1.4-3.2-1.5-2.6-0.3-2.7-0.2-1.4 1.3zm7.2 8c-0.5 0.9-0.3 2 0.5 2.8 0.9 0.9 1.7 0.9 3 0.1 0.9-0.6 1.7-1.7 1.7-2.5 0-0.8-1-1.5-2.2-1.7-1.3-0.2-2.5 0.3-3 1.3zm-11.5 7.9c-0.7 0.6-1.1 1.5-1 2.1 0.1 0.5 2.7 1.8 5.9 2.7 3.2 1 6.6 1.8 7.6 1.8 1 0 1.7-0.8 1.7-2q0-2 3.5-3.5c1.9-0.8 3.4-1.7 3.3-1.9-0.2-0.2-4.7-0.3-10.1-0.2-5.4 0-10.3 0.5-10.9 1zm54.1 9.1c-2.2 2.4-2.3 2.8-1.1 6.3 0.7 2 2.3 5.1 3.7 6.7l2.4 3c4.6-4.6 4.9-5.7 4.5-9.8-0.2-2.6-1-5.6-1.6-6.7-0.7-1.1-2.2-2-3.4-2-1.1 0-3.2 1.1-4.5 2.5zm-25.8 2c-0.6 0.8-1 2.3-0.8 3.2 0.1 1 1.1 1.9 2.2 2.1 1.1 0.2 3.1-0.6 4.5-1.7 2.5-2.1 2.5-2.1 0.5-3.6-1.1-0.9-2.7-1.5-3.6-1.5-0.9 0-2.2 0.7-2.8 1.5zm-19.6 3.2c-1.4 0.3-1.9 1.2-1.7 2.9 0.2 1.9 0.8 2.4 3.2 2.4 2.7 0 3-0.3 3-3 0-1.8-0.5-3-1.2-2.9-0.7 0.1-2.2 0.3-3.3 0.6zm9.5 16.5c-0.1 0.7 0.7 2 1.6 2.8 1.4 1.3 1.8 1.3 3-0.5 0.8-1.1 1.4-2.3 1.4-2.8 0-0.4-1.3-0.7-3-0.7-1.7 0-3 0.5-3 1.2zm47.6 3.5c-0.4 1-0.3 2.1 0.1 2.6 0.5 0.4 2.3 0.3 4.1-0.3 1.7-0.5 3.2-1.7 3.2-2.5 0-1-1-1.5-3.4-1.5-2.4 0-3.6 0.5-4 1.7zm-8.6 6c0 0.5 0.5 1.6 1.2 2.7 1.1 1.5 1.7 1.7 3.6 0.7 1.8-0.9 2-1.4 1-2.6-0.7-0.9-2.3-1.6-3.5-1.5-1.3 0-2.3 0.3-2.3 0.7zm-40.5 6c-0.5 0.3-0.8 1-0.7 1.5 0.1 0.4 2.1 0.7 4.4 0.5 2.3-0.1 4.3-0.8 4.5-1.5q0.3-1.2-3.5-1.2c-2.1 0-4.2 0.3-4.7 0.7zm56 15c-0.4 0.4-1.5 0.8-2.4 0.8-0.9 0-1.6 0.8-1.6 1.9 0 1 1.2 2.8 2.7 4 2.4 1.8 3.3 1.9 6 1.1 1.8-0.6 3.4-1.8 3.6-2.8 0.1-0.9-0.7-2.6-1.8-3.7-1.1-1.1-2.8-2-3.8-2-1 0-2.2 0.3-2.7 0.7zm-37.2 7c-2.9 0.2-5.3 0.6-5.3 1 0 0.5 0.4 1.3 0.8 2 0.4 0.7 2.1 1.5 3.7 1.9 2.1 0.4 3.5 0.1 4.8-1 0.9-0.9 1.7-2.3 1.7-3.1 0-0.8-0.1-1.4-0.2-1.3-0.2 0.1-2.7 0.3-5.5 0.5zm34.2 2c-0.5 0.3-0.8 1.2-0.7 2 0.1 0.7 1.1 1.3 2.2 1.3q2 0 2-2c0-1.1-0.6-2-1.3-2-0.8 0-1.7 0.3-2.2 0.7zm17.3 0.9c-1.7 0.4-1.7 0.5 0 3.4 0.9 1.7 2.5 3 3.5 3 0.9 0 2.6-0.5 3.7-1 2-1 2-1-0.2-3.5-1.3-1.4-3-2.5-3.8-2.4-0.8 0.1-2.3 0.3-3.2 0.5zm-110.3 9.1c-0.5 0.3-0.8 1.5-0.7 2.5 0.2 1.3 1 1.8 3.2 1.8 1.7 0 3-0.5 3-1.3 0-0.6-0.5-1.8-1.2-2.5-0.7-0.7-1.8-1.2-2.4-1.2-0.6 0-1.4 0.3-1.9 0.7zm85.9 3c0.4 1.2-0.1 2.1-1.7 2.8-1.2 0.5-2.2 1.6-2.2 2.3 0 0.7 3.5 3.2 7.9 5.5 6.2 3.3 8.2 4 9.5 3.1 0.9-0.6 1.7-2.5 1.9-4.3 0.2-2.5-0.2-3.1-1.8-3.1-1.1 0-2.7-0.3-3.6-0.8-0.8-0.4-1.9-2.2-2.5-4-0.8-2.8-1.3-3.2-4.5-3.2-3 0-3.5 0.3-3 1.7zm21.6 0.3c-0.8 0.5-2.7 1-4.2 1-1.8 0-2.8 0.5-2.8 1.5 0 1.2 1.1 1.4 5.3 1.2 4.6-0.2 5.2-0.5 5.3-2.5 0.1-1.2-0.3-2.2-1-2.2-0.6 0-1.8 0.5-2.6 1zm8 7.5c-1.9 0.8-4.1 2.6-4.7 4-0.7 1.4-1.3 3-1.3 3.5 0 0.6 2.1 0.9 4.8 0.7 4.2-0.3 4.7-0.6 4.9-2.7 0-1.4 0.3-3.5 0.6-4.8 0.3-1.2 0.2-2.2-0.1-2.1-0.4 0-2.3 0.6-4.2 1.4zm-12.6 5.2c-1.4 0.3-2.4 1.7-3.2 4.9-0.7 2.4-1 5.1-0.7 5.9q0.5 1.5 3 1c2.1-0.4 2.7 0 3.5 2.5 0.5 1.6 1.7 3 2.5 3 0.8 0 2.2-1 3-2.3 1.3-2 1.2-2.6-0.8-6.2-1.2-2.2-2.2-4.5-2.3-5-0.1-0.5-0.2-1.8-0.3-2.8 0-0.9-0.7-1.6-1.3-1.6-0.7 0.1-2.2 0.4-3.4 0.6zm-221.9 7c-0.5 0.3-0.8 1-0.7 1.5 0.1 0.4 1.3 1 2.7 1.3 1.4 0.3 3.2-0.1 4-0.8 0.9-0.6 1.6-1.5 1.5-2 0-0.4-1.5-0.7-3.3-0.7-1.9 0-3.7 0.3-4.2 0.7zm235.8 0.1c-0.8 0.4-0.9 1.3-0.3 2.2 0.7 1.3 1 1.3 2.5 0 0.9-0.8 1.6-1.8 1.5-2.3 0-0.4-0.6-0.7-1.2-0.7-0.7 0-1.8 0.4-2.5 0.8zm6.7 3.2q0 2 1.5 1.5c0.8-0.3 2-0.5 2.5-0.5 0.5 0 1-0.7 1-1.5 0-0.9-0.9-1.5-2.5-1.5-1.8 0-2.5 0.5-2.5 2zm-257.4 21.2c-2.1 0.7-2.9 1.6-2.8 2.9 0.1 1 0.9 2.6 1.7 3.4 0.8 0.8 2.4 1.5 3.5 1.5 1.1 0 3.1-0.5 4.5-1 1.4-0.5 2.8-1.7 3.2-2.5 0.5-0.9 0.1-2.3-1.2-3.5-1.1-1.2-2.9-2-4-2-1.1 0.1-3.3 0.6-5 1.2zm0.5 19.8c0 0.5 1.1 1.2 2.5 1.5 1.4 0.3 2.9 0.3 3.5 0 0.5-0.3 0.8-1 0.5-1.5-0.3-0.5-1.9-1-3.5-1-1.6 0-3 0.5-3 1zm11.1 13c-1.5 0.6-2.4 1.7-2.3 2.7 0.2 1.6 0.9 1.7 6.9 1 3.8-0.4 7-1 7.3-1.3 0.3-0.3-0.4-1.2-1.5-2-1.1-0.8-3.4-1.4-5-1.4-1.6 0.1-4.1 0.5-5.4 1zm162.5 1.5c-0.4 0.9 0.3 2.1 1.6 3 1.9 1.3 3.2 1.4 7 0.5 2.7-0.5 4.8-1.5 4.8-2 0-0.5-0.9-1.5-2-2-1.1-0.5-4-1-6.4-1-3 0-4.6 0.5-5 1.5zm93.2-0.2c-1.4 0.9-1.5 1.5-0.5 2.5 0.7 0.7 2.3 1.2 3.7 1.2 1.4 0 3.2-0.5 4-1q1.5-0.9 0.5-1.9c-0.5-0.5-2.1-1.2-3.5-1.5-1.4-0.3-3.3 0-4.2 0.7zm-312.8 1.2c0 0.8 0.7 1.5 1.5 1.5 0.8 0 2.2-0.2 3-0.5 0.8-0.3 1.5-1 1.5-1.5 0-0.5-1.4-1-3-1q-3 0-3 1.5zm252 16.7c-0.8 0.7-1.3 1.8-1.2 2.5 0.2 1 6.6 1.3 31.9 1.2 24.7 0 31.2-0.3 29.3-1.2-1.6-0.7-10.6-1.2-25-1.3-12.8-0.1-24.2-0.6-26.5-1.2-2.2-0.7-4.7-1.2-5.5-1.2-0.9 0-2.2 0.5-3 1.2z"/>
	</g>
</svg>